<svg width="1280" height="1124" viewBox="0 0 1280 1124" fill="none" xmlns="http://www.w3.org/2000/svg">
<g clip-path="url(#clip0_2016_289)">
<rect width="1295" height="1167" transform="translate(-15)" fill="#BBD8F0"/>
<g filter="url(#filter0_f_2016_289)">
<g opacity="0.8" filter="url(#filter1_df_2016_289)">
<path d="M-177 583.231C-172.224 580.301 -157.838 565.561 -140.762 547.413C-116.741 521.886 -89.1573 514.275 -33.8692 506.762C-4.81662 502.814 43.3979 505.831 88.6086 512.536C175.274 525.388 220.106 548.642 227.776 553.754C249.649 568.335 273.422 586.702 296.284 605.029C318.822 623.095 337.891 635.075 355.941 648.289C376.72 663.5 392.721 679.049 412.193 694.803C446.572 722.619 473.898 744.22 496.631 757.149C512.998 766.457 528.844 771.441 548.085 780.598C566.708 789.462 587.513 791.229 724.91 796.29C795.488 798.89 810.515 812.773 825.449 821.557C840.024 830.13 852.85 850.811 868.238 869.149C880.669 888.058 891.361 904.372 898.078 912.783C901.461 916.839 904.794 920.467 914 933" stroke="#6E73F4" stroke-width="200" stroke-linecap="round"/>
</g>
<g opacity="0.8" filter="url(#filter2_f_2016_289)">
<path d="M-117.12 763.035C-118.223 763.035 -123.202 763.035 -123.484 761.568C-130.691 724.106 -62.0676 747.063 61.2865 745.967C129.717 745.359 205.892 771.632 248.107 779.33C268.465 783.043 290.28 789.883 310.496 798.401C331.617 807.3 354.911 816.309 381.943 829.204C416.361 845.623 433.324 852.706 454.302 861.523C482.198 873.248 498.486 879.73 517.261 883.862C536.831 888.168 554.24 893.824 573.578 899.127C583.491 901.47 592.386 904.412 600.643 907.636C605.074 909.116 609.993 910.279 625 915" stroke="#79CDFB" stroke-width="200" stroke-linecap="round"/>
</g>
<g opacity="0.7" filter="url(#filter3_f_2016_289)" style="mix-blend-mode:plus-lighter">
<ellipse cx="1051.08" cy="0.064744" rx="542" ry="408.5" transform="rotate(14.0775 1051.08 0.064744)" fill="#ACA4F8"/>
</g>
<g opacity="0.8" filter="url(#filter4_f_2016_289)" style="mix-blend-mode:plus-lighter">
<ellipse cx="1166.08" cy="-205.935" rx="542" ry="408.5" transform="rotate(14.0775 1166.08 -205.935)" fill="#7ACDF9"/>
</g>
<g opacity="0.8" filter="url(#filter5_f_2016_289)">
<ellipse cx="1254.29" cy="-342.141" rx="542" ry="425.814" transform="rotate(14.0775 1254.29 -342.141)" fill="#4E95F3"/>
</g>
<rect width="1325" height="1167" fill="#BBD8F0"/>
</g>
<g opacity="0.57">
<rect x="-15" y="-3.72191" width="70" height="1170.72" fill="url(#paint0_linear_2016_289)" style="mix-blend-mode:overlay"/>
<rect x="55" y="-3.72191" width="70" height="1170.72" fill="url(#paint1_linear_2016_289)" style="mix-blend-mode:overlay"/>
<rect x="125" y="-3.72191" width="70" height="1170.72" fill="url(#paint2_linear_2016_289)" style="mix-blend-mode:overlay"/>
<rect x="195" y="-3.72191" width="70" height="1170.72" fill="url(#paint3_linear_2016_289)" style="mix-blend-mode:overlay"/>
<rect x="265" y="-3.72191" width="70" height="1170.72" fill="url(#paint4_linear_2016_289)" style="mix-blend-mode:overlay"/>
<rect x="335" y="-3.72191" width="70" height="1170.72" fill="url(#paint5_linear_2016_289)" style="mix-blend-mode:overlay"/>
<rect x="405" y="-3.72191" width="70" height="1170.72" fill="url(#paint6_linear_2016_289)" style="mix-blend-mode:overlay"/>
<rect x="475" y="-3.72191" width="70" height="1170.72" fill="url(#paint7_linear_2016_289)" style="mix-blend-mode:overlay"/>
<rect x="545" y="-3.72191" width="70" height="1170.72" fill="url(#paint8_linear_2016_289)" style="mix-blend-mode:overlay"/>
<rect x="615" y="-3.72191" width="70" height="1170.72" fill="url(#paint9_linear_2016_289)" style="mix-blend-mode:overlay"/>
<rect x="685" y="-3.72191" width="70" height="1170.72" fill="url(#paint10_linear_2016_289)" style="mix-blend-mode:overlay"/>
<rect x="755" y="-3.72191" width="70" height="1170.72" fill="url(#paint11_linear_2016_289)" style="mix-blend-mode:overlay"/>
<rect x="825" y="-3.72191" width="70" height="1170.72" fill="url(#paint12_linear_2016_289)" style="mix-blend-mode:overlay"/>
<rect x="895" y="-3.72191" width="70" height="1170.72" fill="url(#paint13_linear_2016_289)" style="mix-blend-mode:overlay"/>
<rect x="965" y="-3.72191" width="70" height="1170.72" fill="url(#paint14_linear_2016_289)" style="mix-blend-mode:overlay"/>
<rect x="1035" y="-3.72191" width="70" height="1170.72" fill="url(#paint15_linear_2016_289)" style="mix-blend-mode:overlay"/>
<rect x="1105" y="-3.72191" width="70" height="1170.72" fill="url(#paint16_linear_2016_289)" style="mix-blend-mode:overlay"/>
<rect x="1175" y="-3.72191" width="70" height="1170.72" fill="url(#paint17_linear_2016_289)" style="mix-blend-mode:overlay"/>
</g>
<g filter="url(#filter7_f_2016_289)">
<rect x="-216" y="-1194" width="1688" height="1428.69" rx="88" fill="white"/>
</g>
<g filter="url(#filter8_f_2016_289)">
<rect x="-305" y="859" width="2029" height="966" rx="88" fill="white"/>
</g>
</g>
<defs>
<filter id="filter0_f_2016_289" x="-477.014" y="-975.813" width="2467.24" height="2342.81" filterUnits="userSpaceOnUse" color-interpolation-filters="sRGB">
<feFlood flood-opacity="0" result="BackgroundImageFix"/>
<feBlend mode="normal" in="SourceGraphic" in2="BackgroundImageFix" result="shape"/>
<feGaussianBlur stdDeviation="100" result="effect1_foregroundBlur_2016_289"/>
</filter>
<filter id="filter1_df_2016_289" x="-477.014" y="205.013" width="1691.02" height="1027.99" filterUnits="userSpaceOnUse" color-interpolation-filters="sRGB">
<feFlood flood-opacity="0" result="BackgroundImageFix"/>
<feColorMatrix in="SourceAlpha" type="matrix" values="0 0 0 0 0 0 0 0 0 0 0 0 0 0 0 0 0 0 127 0" result="hardAlpha"/>
<feOffset dy="4"/>
<feGaussianBlur stdDeviation="2"/>
<feComposite in2="hardAlpha" operator="out"/>
<feColorMatrix type="matrix" values="0 0 0 0 0 0 0 0 0 0 0 0 0 0 0 0 0 0 0.25 0"/>
<feBlend mode="normal" in2="BackgroundImageFix" result="effect1_dropShadow_2016_289"/>
<feBlend mode="normal" in="SourceGraphic" in2="effect1_dropShadow_2016_289" result="shape"/>
<feGaussianBlur stdDeviation="100" result="effect2_foregroundBlur_2016_289"/>
</filter>
<filter id="filter2_f_2016_289" x="-423.992" y="439.951" width="1349.02" height="775.076" filterUnits="userSpaceOnUse" color-interpolation-filters="sRGB">
<feFlood flood-opacity="0" result="BackgroundImageFix"/>
<feBlend mode="normal" in="SourceGraphic" in2="BackgroundImageFix" result="shape"/>
<feGaussianBlur stdDeviation="100" result="effect1_foregroundBlur_2016_289"/>
</filter>
<filter id="filter3_f_2016_289" x="315.957" y="-617.636" width="1470.25" height="1235.4" filterUnits="userSpaceOnUse" color-interpolation-filters="sRGB">
<feFlood flood-opacity="0" result="BackgroundImageFix"/>
<feBlend mode="normal" in="SourceGraphic" in2="BackgroundImageFix" result="shape"/>
<feGaussianBlur stdDeviation="100" result="effect1_foregroundBlur_2016_289"/>
</filter>
<filter id="filter4_f_2016_289" x="430.957" y="-823.636" width="1470.25" height="1235.4" filterUnits="userSpaceOnUse" color-interpolation-filters="sRGB">
<feFlood flood-opacity="0" result="BackgroundImageFix"/>
<feBlend mode="normal" in="SourceGraphic" in2="BackgroundImageFix" result="shape"/>
<feGaussianBlur stdDeviation="100" result="effect1_foregroundBlur_2016_289"/>
</filter>
<filter id="filter5_f_2016_289" x="518.365" y="-975.813" width="1471.86" height="1267.34" filterUnits="userSpaceOnUse" color-interpolation-filters="sRGB">
<feFlood flood-opacity="0" result="BackgroundImageFix"/>
<feBlend mode="normal" in="SourceGraphic" in2="BackgroundImageFix" result="shape"/>
<feGaussianBlur stdDeviation="100" result="effect1_foregroundBlur_2016_289"/>
</filter>
<filter id="filter7_f_2016_289" x="-572.8" y="-1550.8" width="2401.6" height="2142.29" filterUnits="userSpaceOnUse" color-interpolation-filters="sRGB">
<feFlood flood-opacity="0" result="BackgroundImageFix"/>
<feBlend mode="normal" in="SourceGraphic" in2="BackgroundImageFix" result="shape"/>
<feGaussianBlur stdDeviation="178.4" result="effect1_foregroundBlur_2016_289"/>
</filter>
<filter id="filter8_f_2016_289" x="-661.8" y="502.2" width="2742.6" height="1679.6" filterUnits="userSpaceOnUse" color-interpolation-filters="sRGB">
<feFlood flood-opacity="0" result="BackgroundImageFix"/>
<feBlend mode="normal" in="SourceGraphic" in2="BackgroundImageFix" result="shape"/>
<feGaussianBlur stdDeviation="178.4" result="effect1_foregroundBlur_2016_289"/>
</filter>
<linearGradient id="paint0_linear_2016_289" x1="-15" y1="581.639" x2="55" y2="581.639" gradientUnits="userSpaceOnUse">
<stop stop-color="#D9D9D9" stop-opacity="0"/>
<stop offset="0.75" stop-color="#060606" stop-opacity="0.77"/>
<stop offset="1" stop-color="white"/>
</linearGradient>
<linearGradient id="paint1_linear_2016_289" x1="55" y1="581.639" x2="125" y2="581.639" gradientUnits="userSpaceOnUse">
<stop stop-color="#D9D9D9" stop-opacity="0"/>
<stop offset="0.75" stop-color="#060606" stop-opacity="0.77"/>
<stop offset="1" stop-color="white"/>
</linearGradient>
<linearGradient id="paint2_linear_2016_289" x1="125" y1="581.639" x2="195" y2="581.639" gradientUnits="userSpaceOnUse">
<stop stop-color="#D9D9D9" stop-opacity="0"/>
<stop offset="0.75" stop-color="#060606" stop-opacity="0.77"/>
<stop offset="1" stop-color="white"/>
</linearGradient>
<linearGradient id="paint3_linear_2016_289" x1="195" y1="581.639" x2="265" y2="581.639" gradientUnits="userSpaceOnUse">
<stop stop-color="#D9D9D9" stop-opacity="0"/>
<stop offset="0.75" stop-color="#060606" stop-opacity="0.77"/>
<stop offset="1" stop-color="white"/>
</linearGradient>
<linearGradient id="paint4_linear_2016_289" x1="265" y1="581.639" x2="335" y2="581.639" gradientUnits="userSpaceOnUse">
<stop stop-color="#D9D9D9" stop-opacity="0"/>
<stop offset="0.75" stop-color="#060606" stop-opacity="0.77"/>
<stop offset="1" stop-color="white"/>
</linearGradient>
<linearGradient id="paint5_linear_2016_289" x1="335" y1="581.639" x2="405" y2="581.639" gradientUnits="userSpaceOnUse">
<stop stop-color="#D9D9D9" stop-opacity="0"/>
<stop offset="0.75" stop-color="#060606" stop-opacity="0.77"/>
<stop offset="1" stop-color="white"/>
</linearGradient>
<linearGradient id="paint6_linear_2016_289" x1="405" y1="581.639" x2="475" y2="581.639" gradientUnits="userSpaceOnUse">
<stop stop-color="#D9D9D9" stop-opacity="0"/>
<stop offset="0.75" stop-color="#060606" stop-opacity="0.77"/>
<stop offset="1" stop-color="white"/>
</linearGradient>
<linearGradient id="paint7_linear_2016_289" x1="475" y1="581.639" x2="545" y2="581.639" gradientUnits="userSpaceOnUse">
<stop stop-color="#D9D9D9" stop-opacity="0"/>
<stop offset="0.75" stop-color="#060606" stop-opacity="0.77"/>
<stop offset="1" stop-color="white"/>
</linearGradient>
<linearGradient id="paint8_linear_2016_289" x1="545" y1="581.639" x2="615" y2="581.639" gradientUnits="userSpaceOnUse">
<stop stop-color="#D9D9D9" stop-opacity="0"/>
<stop offset="0.75" stop-color="#060606" stop-opacity="0.77"/>
<stop offset="1" stop-color="white"/>
</linearGradient>
<linearGradient id="paint9_linear_2016_289" x1="615" y1="581.639" x2="685" y2="581.639" gradientUnits="userSpaceOnUse">
<stop stop-color="#D9D9D9" stop-opacity="0"/>
<stop offset="0.75" stop-color="#060606" stop-opacity="0.77"/>
<stop offset="1" stop-color="white"/>
</linearGradient>
<linearGradient id="paint10_linear_2016_289" x1="685" y1="581.639" x2="755" y2="581.639" gradientUnits="userSpaceOnUse">
<stop stop-color="#D9D9D9" stop-opacity="0"/>
<stop offset="0.75" stop-color="#060606" stop-opacity="0.77"/>
<stop offset="1" stop-color="white"/>
</linearGradient>
<linearGradient id="paint11_linear_2016_289" x1="755" y1="581.639" x2="825" y2="581.639" gradientUnits="userSpaceOnUse">
<stop stop-color="#D9D9D9" stop-opacity="0"/>
<stop offset="0.75" stop-color="#060606" stop-opacity="0.77"/>
<stop offset="1" stop-color="white"/>
</linearGradient>
<linearGradient id="paint12_linear_2016_289" x1="825" y1="581.639" x2="895" y2="581.639" gradientUnits="userSpaceOnUse">
<stop stop-color="#D9D9D9" stop-opacity="0"/>
<stop offset="0.75" stop-color="#060606" stop-opacity="0.77"/>
<stop offset="1" stop-color="white"/>
</linearGradient>
<linearGradient id="paint13_linear_2016_289" x1="895" y1="581.639" x2="965" y2="581.639" gradientUnits="userSpaceOnUse">
<stop stop-color="#D9D9D9" stop-opacity="0"/>
<stop offset="0.75" stop-color="#060606" stop-opacity="0.77"/>
<stop offset="1" stop-color="white"/>
</linearGradient>
<linearGradient id="paint14_linear_2016_289" x1="965" y1="581.639" x2="1035" y2="581.639" gradientUnits="userSpaceOnUse">
<stop stop-color="#D9D9D9" stop-opacity="0"/>
<stop offset="0.75" stop-color="#060606" stop-opacity="0.77"/>
<stop offset="1" stop-color="white"/>
</linearGradient>
<linearGradient id="paint15_linear_2016_289" x1="1035" y1="581.639" x2="1105" y2="581.639" gradientUnits="userSpaceOnUse">
<stop stop-color="#D9D9D9" stop-opacity="0"/>
<stop offset="0.75" stop-color="#060606" stop-opacity="0.77"/>
<stop offset="1" stop-color="white"/>
</linearGradient>
<linearGradient id="paint16_linear_2016_289" x1="1105" y1="581.639" x2="1175" y2="581.639" gradientUnits="userSpaceOnUse">
<stop stop-color="#D9D9D9" stop-opacity="0"/>
<stop offset="0.75" stop-color="#060606" stop-opacity="0.77"/>
<stop offset="1" stop-color="white"/>
</linearGradient>
<linearGradient id="paint17_linear_2016_289" x1="1175" y1="581.639" x2="1245" y2="581.639" gradientUnits="userSpaceOnUse">
<stop stop-color="#D9D9D9" stop-opacity="0"/>
<stop offset="0.75" stop-color="#060606" stop-opacity="0.77"/>
<stop offset="1" stop-color="white"/>
</linearGradient>
<clipPath id="clip0_2016_289">
<rect width="1295" height="1167" fill="white" transform="translate(-15)"/>
</clipPath>
</defs>
</svg>
