<svg width="73" height="73" viewBox="0 0 73 73" fill="none" xmlns="http://www.w3.org/2000/svg">
<g clip-path="url(#clip0_2033_4)">
<path d="M16.7292 30.4167C7.34867 30.4167 0 34.4256 0 39.5417V63.875C0 68.9911 7.34867 73 16.7292 73C26.1097 73 33.4583 68.9911 33.4583 63.875V39.5417C33.4583 34.4256 26.1097 30.4167 16.7292 30.4167ZM30.4167 51.7083C30.4167 54.5858 24.7957 57.7917 16.7292 57.7917C8.66267 57.7917 3.04167 54.5858 3.04167 51.7083V44.8524C6.04379 47.1763 11.0108 48.6667 16.7292 48.6667C22.4475 48.6667 27.4145 47.1763 30.4167 44.8524V51.7083ZM16.7292 33.4583C24.7957 33.4583 30.4167 36.6642 30.4167 39.5417C30.4167 42.4191 24.7957 45.625 16.7292 45.625C8.66267 45.625 3.04167 42.4191 3.04167 39.5417C3.04167 36.6642 8.66267 33.4583 16.7292 33.4583ZM16.7292 69.9583C8.66267 69.9583 3.04167 66.7524 3.04167 63.875V57.0191C6.04379 59.3429 11.0108 60.8333 16.7292 60.8333C22.4475 60.8333 27.4145 59.3429 30.4167 57.0191V63.875C30.4167 66.7524 24.7957 69.9583 16.7292 69.9583ZM60.8333 16.7292C60.8333 14.2137 58.7863 12.1667 56.2708 12.1667H28.8958C26.3804 12.1667 24.3333 14.2137 24.3333 16.7292V22.8125C24.3333 25.328 26.3804 27.375 28.8958 27.375H56.2708C58.7863 27.375 60.8333 25.328 60.8333 22.8125V16.7292ZM57.7917 22.8125C57.7917 23.652 57.1073 24.3333 56.2708 24.3333H28.8958C28.0594 24.3333 27.375 23.652 27.375 22.8125V16.7292C27.375 15.8897 28.0594 15.2083 28.8958 15.2083H56.2708C57.1073 15.2083 57.7917 15.8897 57.7917 16.7292V22.8125ZM60.8333 38.0208C60.8333 38.8603 60.152 39.5417 59.3125 39.5417C58.473 39.5417 57.7917 38.8603 57.7917 38.0208V34.9792C57.7917 34.1397 58.473 33.4583 59.3125 33.4583C60.152 33.4583 60.8333 34.1397 60.8333 34.9792V38.0208ZM48.6667 38.0208V34.9792C48.6667 34.1397 49.348 33.4583 50.1875 33.4583C51.027 33.4583 51.7083 34.1397 51.7083 34.9792V38.0208C51.7083 38.8603 51.027 39.5417 50.1875 39.5417C49.348 39.5417 48.6667 38.8603 48.6667 38.0208ZM39.5417 38.0208V34.9792C39.5417 34.1397 40.223 33.4583 41.0625 33.4583C41.902 33.4583 42.5833 34.1397 42.5833 34.9792V38.0208C42.5833 38.8603 41.902 39.5417 41.0625 39.5417C40.223 39.5417 39.5417 38.8603 39.5417 38.0208ZM39.5417 47.1458C39.5417 46.3063 40.223 45.625 41.0625 45.625C41.902 45.625 42.5833 46.3063 42.5833 47.1458V50.1875C42.5833 51.027 41.902 51.7083 41.0625 51.7083C40.223 51.7083 39.5417 51.027 39.5417 50.1875V47.1458ZM48.6667 47.1458C48.6667 46.3063 49.348 45.625 50.1875 45.625C51.027 45.625 51.7083 46.3063 51.7083 47.1458V50.1875C51.7083 51.027 51.027 51.7083 50.1875 51.7083C49.348 51.7083 48.6667 51.027 48.6667 50.1875V47.1458ZM60.8333 50.1875C60.8333 51.027 60.152 51.7083 59.3125 51.7083C58.473 51.7083 57.7917 51.027 57.7917 50.1875V47.1458C57.7917 46.3063 58.473 45.625 59.3125 45.625C60.152 45.625 60.8333 46.3063 60.8333 47.1458V50.1875ZM39.5417 59.3125C39.5417 58.473 40.223 57.7917 41.0625 57.7917H59.3125C60.152 57.7917 60.8333 58.473 60.8333 59.3125C60.8333 60.152 60.152 60.8333 59.3125 60.8333H41.0625C40.223 60.8333 39.5417 60.152 39.5417 59.3125ZM73 13.6875V59.3125C73 66.8589 66.8589 73 59.3125 73H38.0208C37.1813 73 36.5 72.3187 36.5 71.4792C36.5 70.6397 37.1813 69.9583 38.0208 69.9583H59.3125C65.1829 69.9583 69.9583 65.1829 69.9583 59.3125V13.6875C69.9583 7.81708 65.1829 3.04167 59.3125 3.04167H25.8542C19.9838 3.04167 15.2083 7.81708 15.2083 13.6875V22.8125C15.2083 23.652 14.527 24.3333 13.6875 24.3333C12.848 24.3333 12.1667 23.652 12.1667 22.8125V13.6875C12.1667 6.14113 18.3078 0 25.8542 0H59.3125C66.8589 0 73 6.14113 73 13.6875Z" fill="#202020"/>
</g>
<defs>
<clipPath id="clip0_2033_4">
<rect width="73" height="73" fill="white"/>
</clipPath>
</defs>
</svg>
