<svg width="289" height="289" viewBox="0 0 289 289" fill="none" xmlns="http://www.w3.org/2000/svg">
<g clip-path="url(#clip0_2085_102)">
<path d="M240.833 96.3333C214.221 96.3333 192.667 74.7788 192.667 48.1667C192.667 21.5546 214.221 0 240.833 0C267.445 0 289 21.5546 289 48.1667C289 74.7788 267.445 96.3333 240.833 96.3333ZM144.5 185.683C153.772 185.683 163.044 182.19 170.028 175.086L226.263 118.851C193.389 112.108 168.583 82.9671 168.583 48.0463C168.583 43.9521 169.065 39.9783 169.667 36.0046H60.2083C38.4129 36.0046 19.5075 47.685 8.91083 65.025L118.972 175.206C125.956 182.19 135.228 185.803 144.5 185.803V185.683ZM262.027 117.165L187.007 192.185C175.327 203.865 159.793 209.766 144.38 209.766C128.966 209.766 113.553 203.865 101.752 192.185L0.602083 90.7942C0.481667 92.6004 0 94.4067 0 96.3333V228.792C0 262.027 26.9733 289 60.2083 289H228.792C262.027 289 289 262.027 289 228.792L288.759 101.993C281.053 108.857 272.021 114.035 262.027 117.165Z" fill="#2A9BFF"/>
</g>
<defs>
<clipPath id="clip0_2085_102">
<rect width="289" height="289" fill="white"/>
</clipPath>
</defs>
</svg>
