<svg width="81" height="81" viewBox="0 0 81 81" fill="none" xmlns="http://www.w3.org/2000/svg">
<path d="M23.036 73.4062H57.9641C61.0965 73.4062 63.5882 70.8291 63.2512 67.8596C61.0759 48.7266 48.0938 49.043 48.0938 40.5C48.0938 31.957 61.242 32.4316 63.2496 13.1404C63.566 10.1693 61.0965 7.59375 57.9641 7.59375H23.036C19.9035 7.59375 17.4403 10.1693 17.7504 13.1404C19.758 32.4316 32.9063 31.7988 32.9063 40.5C32.9063 49.2012 19.9241 48.7266 17.7504 67.8596C17.4118 70.8291 19.9035 73.4062 23.036 73.4062Z" stroke="#202020" stroke-linecap="round" stroke-linejoin="round"/>
<path d="M54.3111 68.3438H26.7569C24.2889 68.3438 23.5928 65.4961 25.3236 63.7305C29.5128 59.4844 37.9688 56.4437 37.9688 51.5742V35.4375C37.9688 32.2972 31.957 29.9004 28.2377 24.8063C27.6239 23.9662 27.6856 22.7812 29.2454 22.7812H51.8258C53.1563 22.7812 53.4442 23.9567 52.8383 24.7983C49.1727 29.9004 43.0313 32.2813 43.0313 35.4375V51.5742C43.0313 56.4042 51.8448 59.0098 55.7508 63.7353C57.3249 65.6401 56.7744 68.3438 54.3111 68.3438Z" fill="#202020"/>
</svg>
