<svg width="75" height="75" viewBox="0 0 75 75" fill="none" xmlns="http://www.w3.org/2000/svg">
<path d="M17.6563 15.7344L15.4438 13.5219C18.3188 10.6136 21.6354 8.35317 25.3938 6.74067C29.1542 5.13442 33.1896 4.3313 37.5 4.3313C41.8104 4.3313 45.8458 5.13651 49.6063 6.74692C53.3667 8.35734 56.6833 10.6167 59.5563 13.525L57.3438 15.7375C54.8438 13.2125 51.8875 11.2011 48.475 9.70317C45.0625 8.20526 41.4042 7.45422 37.5 7.45005C33.5958 7.44588 29.9375 8.19588 26.525 9.70005C23.1125 11.2042 20.1563 13.2178 17.6563 15.7344ZM26.4063 24.4813L24.1938 22.2719C25.9729 20.4928 27.9771 19.1407 30.2063 18.2157C32.4354 17.2907 34.8667 16.8282 37.5 16.8282C40.1333 16.8282 42.5646 17.2907 44.7938 18.2157C47.0229 19.1407 49.0271 20.4928 50.8063 22.2719L48.5938 24.4844C47.1875 23.0782 45.5333 21.9709 43.6313 21.1625C41.7292 20.3542 39.6854 19.9511 37.5 19.9532C35.3146 19.9553 33.2698 20.3584 31.3656 21.1625C29.4615 21.9667 27.8083 23.0709 26.4063 24.4813ZM31.125 70.4376C29.3646 68.6751 28.4844 66.5501 28.4844 64.0626V39.0282C28.4844 36.5386 29.3656 34.4136 31.1281 32.6532C32.8885 30.8928 35.0125 30.0126 37.5 30.0126C39.9875 30.0126 42.1125 30.8928 43.875 32.6532C45.6375 34.4136 46.5177 36.5386 46.5156 39.0282V64.0626C46.5156 66.5501 45.6354 68.6751 43.875 70.4376C42.1125 72.198 39.9875 73.0782 37.5 73.0782C35.0125 73.0782 32.8875 72.1969 31.125 70.4344M41.9156 43.4782C43.1385 42.2532 43.75 40.7813 43.75 39.0626C43.75 37.3438 43.1385 35.873 41.9156 34.6501C40.6927 33.4271 39.2208 32.8146 37.5 32.8126C35.7792 32.8105 34.3083 33.423 33.0875 34.6501C31.8667 35.8771 31.2542 37.348 31.25 39.0626C31.2458 40.7771 31.8583 42.249 33.0875 43.4782C34.3167 44.7073 35.7875 45.3188 37.5 45.3126C39.2125 45.3063 40.6844 44.6948 41.9156 43.4782Z" fill="#202020"/>
</svg>
