<svg width="45" height="45" viewBox="0 0 45 45" fill="none" xmlns="http://www.w3.org/2000/svg">
<path fill-rule="evenodd" clip-rule="evenodd" d="M14.8027 12.9524C14.8027 10.9894 15.5825 9.10685 16.9705 7.71883C18.3586 6.33081 20.2411 5.55102 22.2041 5.55102C24.167 5.55102 26.0496 6.33081 27.4376 7.71883C28.8257 9.10685 29.6054 10.9894 29.6054 12.9524C29.6054 14.9153 28.8257 16.7979 27.4376 18.1859C26.0496 19.574 24.167 20.3537 22.2041 20.3537C20.2411 20.3537 18.3586 19.574 16.9705 18.1859C15.5825 16.7979 14.8027 14.9153 14.8027 12.9524ZM14.8027 24.0544C12.349 24.0544 9.99582 25.0292 8.26079 26.7642C6.52576 28.4992 5.55103 30.8524 5.55103 33.3061C5.55103 34.7783 6.13586 36.1903 7.17688 37.2313C8.2179 38.2723 9.62982 38.8571 11.102 38.8571H33.3061C34.7783 38.8571 36.1903 38.2723 37.2313 37.2313C38.2723 36.1903 38.8571 34.7783 38.8571 33.3061C38.8571 30.8524 37.8824 28.4992 36.1474 26.7642C34.4124 25.0292 32.0592 24.0544 29.6054 24.0544H14.8027Z" fill="#5E7BEC"/>
</svg>
