<svg width="49" height="48" viewBox="0 0 49 48" fill="none" xmlns="http://www.w3.org/2000/svg">
<path opacity="0.987" fill-rule="evenodd" clip-rule="evenodd" d="M22.0776 3.18298C24.2979 2.93998 25.6118 2.93998 27.9974 3.18298C32.2204 3.79527 36.1352 5.70744 39.1756 8.64298C37.121 10.5454 35.0934 12.4756 33.0934 14.433C29.2633 11.253 24.988 10.519 20.2677 12.231C16.805 13.791 14.3938 16.319 13.0341 19.815C10.812 18.1945 8.61896 16.5362 6.45582 14.841C6.30549 14.7635 6.13379 14.7351 5.96582 14.76C9.40194 8.26998 14.7715 4.40998 22.0746 3.17998" fill="#F44336"/>
<path opacity="0.997" fill-rule="evenodd" clip-rule="evenodd" d="M5.95966 14.76C6.13321 14.734 6.29756 14.761 6.45273 14.841C8.61587 16.5362 10.809 18.1945 13.031 19.815C12.6813 21.1772 12.4609 22.5681 12.3725 23.97C12.4481 25.326 12.6676 26.657 13.031 27.963L6.12504 33.348C3.11766 27.192 3.06254 20.996 5.95966 14.76Z" fill="#FFC107"/>
<path opacity="0.999" fill-rule="evenodd" clip-rule="evenodd" d="M38.848 39.87C36.6977 38.0123 34.4465 36.2698 32.1043 34.65C34.4523 33.026 35.8773 30.798 36.3796 27.966H24.8738V20.139C31.5092 20.085 38.1416 20.14 44.7708 20.304C46.0285 26.994 44.5759 33.026 40.4129 38.4C39.9179 38.9154 39.3935 39.4061 38.848 39.87Z" fill="#448AFF"/>
<path opacity="0.993" fill-rule="evenodd" clip-rule="evenodd" d="M13.0309 27.966C15.5422 34.08 20.1461 36.934 26.8428 36.528C28.7227 36.3148 30.525 35.6715 32.1042 34.65C34.448 36.274 36.6959 38.014 38.8478 39.87C35.4382 42.8714 31.0908 44.6522 26.5151 44.922C25.4755 45.0034 24.431 45.0034 23.3914 44.922C15.5963 44.022 9.84083 40.164 6.125 33.348L13.0309 27.966Z" fill="#43A047"/>
</svg>
