<svg width="20" height="20" viewBox="0 0 20 20" fill="none" xmlns="http://www.w3.org/2000/svg">
<g clip-path="url(#clip0_2033_87)">
<path d="M6.66669 10.0001C6.66669 9.11603 7.01788 8.26818 7.643 7.64306C8.26812 7.01794 9.11597 6.66675 10 6.66675C10.8841 6.66675 11.7319 7.01794 12.357 7.64306C12.9822 8.26818 13.3334 9.11603 13.3334 10.0001C13.3334 10.8841 12.9822 11.732 12.357 12.3571C11.7319 12.9822 10.8841 13.3334 10 13.3334C9.11597 13.3334 8.26812 12.9822 7.643 12.3571C7.01788 11.732 6.66669 10.8841 6.66669 10.0001Z" fill="#6AABFF"/>
<path d="M10.0416 0.833252C11.5641 0.833252 12.7633 0.833252 13.725 0.920752C14.7066 1.00909 15.5216 1.19409 16.25 1.61492C17.1367 2.12688 17.873 2.86321 18.385 3.74992C18.8058 4.47825 18.9908 5.29325 19.0791 6.27492C19.1666 7.23659 19.1666 8.43575 19.1666 9.95825V10.0416C19.1666 11.5641 19.1666 12.7633 19.0791 13.7249C18.9908 14.7066 18.8058 15.5216 18.385 16.2499C17.873 17.1366 17.1367 17.873 16.25 18.3849C15.5216 18.8058 14.7066 18.9908 13.725 19.0791C12.7633 19.1666 11.5641 19.1666 10.0416 19.1666H9.95831C8.43581 19.1666 7.23665 19.1666 6.27498 19.0791C5.29331 18.9908 4.47831 18.8058 3.74998 18.3849C2.86327 17.873 2.12694 17.1366 1.61498 16.2499C1.19415 15.5216 1.00915 14.7066 0.920813 13.7249C0.833313 12.7633 0.833313 11.5641 0.833313 10.0416V9.95825C0.833313 8.43575 0.833313 7.23659 0.920813 6.27492C1.00915 5.29325 1.19415 4.47825 1.61498 3.74992C2.12694 2.86321 2.86327 2.12688 3.74998 1.61492C4.47831 1.19409 5.29331 1.00909 6.27498 0.920752C7.23665 0.833252 8.43581 0.833252 9.95831 0.833252H10.0416ZM15.2083 3.95825C14.9873 3.95825 14.7753 4.04605 14.6191 4.20233C14.4628 4.35861 14.375 4.57057 14.375 4.79159V4.79492C14.375 5.01593 14.4628 5.22789 14.6191 5.38417C14.7753 5.54045 14.9873 5.62825 15.2083 5.62825H15.2116C15.4327 5.62825 15.6446 5.54045 15.8009 5.38417C15.9572 5.22789 16.045 5.01593 16.045 4.79492V4.79159C16.045 4.57057 15.9572 4.35861 15.8009 4.20233C15.6446 4.04605 15.4327 3.95825 15.2116 3.95825H15.2083ZM9.99998 4.99992C8.6739 4.99992 7.40213 5.5267 6.46445 6.46439C5.52676 7.40207 4.99998 8.67384 4.99998 9.99992C4.99998 11.326 5.52676 12.5978 6.46445 13.5355C7.40213 14.4731 8.6739 14.9999 9.99998 14.9999C11.3261 14.9999 12.5978 14.4731 13.5355 13.5355C14.4732 12.5978 15 11.326 15 9.99992C15 8.67384 14.4732 7.40207 13.5355 6.46439C12.5978 5.5267 11.3261 4.99992 9.99998 4.99992Z" fill="#6AABFF"/>
</g>
<defs>
<clipPath id="clip0_2033_87">
<rect width="20" height="20" fill="white"/>
</clipPath>
</defs>
</svg>
