<svg width="73" height="73" viewBox="0 0 73 73" fill="none" xmlns="http://www.w3.org/2000/svg">
<g clip-path="url(#clip0_2033_6)">
<path d="M45.625 0H6.08333V9.125H0V15.2083H6.08333V21.2917H0V27.375H6.08333V33.4583H0V39.5417H6.08333V45.625H0V51.7083H6.08333V57.7917H0V63.875H6.08333V73H45.625C50.6559 73 54.75 68.9059 54.75 63.875V9.125C54.75 4.09408 50.6559 0 45.625 0ZM42.5833 21.2917H18.25V15.2083H42.5833V21.2917ZM73 66.9167L66.9167 73L60.8333 66.9167V6.08333C60.8333 2.72229 63.5556 0 66.9167 0C70.2777 0 73 2.72229 73 6.08333V66.9167Z" fill="#202020"/>
</g>
<defs>
<clipPath id="clip0_2033_6">
<rect width="73" height="73" fill="white"/>
</clipPath>
</defs>
</svg>
