<svg width="333" height="333" viewBox="0 0 333 333" fill="none" xmlns="http://www.w3.org/2000/svg">
<g clip-path="url(#clip0_2085_104)">
<path d="M319.153 299.478H322.302L316.267 290.348C319.958 290.348 321.914 288.003 321.942 285.131C321.942 285.02 321.942 284.895 321.928 284.784C321.928 280.872 319.569 278.999 314.727 278.999H306.901V299.478H309.843V290.556H313.464L319.153 299.478ZM313.256 288.239H309.843V281.316H314.172C316.406 281.316 318.959 281.676 318.959 284.604C318.959 287.962 316.392 288.239 313.256 288.239Z" fill="#2A9BFF"/>
<path d="M239.913 264.638H198.191V199.301C198.191 183.719 197.913 163.67 176.49 163.67C154.762 163.67 151.432 180.639 151.432 198.177V264.638H109.723V130.272H149.781V148.629H150.336C158.508 134.671 173.687 126.332 189.852 126.929C232.143 126.929 239.926 154.748 239.926 190.92L239.913 264.638ZM62.6456 111.902C49.2701 111.902 38.4337 101.066 38.4337 87.69C38.4337 74.3145 49.2701 63.4782 62.6456 63.4782C76.0211 63.4782 86.8575 74.3145 86.8575 87.69C86.8575 101.066 76.0211 111.902 62.6456 111.902ZM83.4998 264.638H41.736V130.272H83.4998V264.638ZM260.711 24.7392H20.7709C9.435 24.6143 0.13875 33.7024 0 45.0383V285.964C0.13875 297.314 9.435 306.402 20.7709 306.277H260.711C272.075 306.416 281.413 297.327 281.565 285.964V45.0244C281.399 33.6608 272.061 24.5727 260.711 24.7253" fill="#2A9BFF"/>
<path d="M313.617 269.883C303.016 269.98 294.497 278.665 294.608 289.266C294.705 299.866 303.391 308.386 313.991 308.275C324.592 308.178 333.111 299.492 333 288.891C332.903 278.43 324.439 269.98 313.991 269.883H313.617ZM314.061 306.069C304.764 306.221 296.661 298.826 296.509 289.53C296.356 280.233 303.765 272.574 313.062 272.422C322.358 272.269 330.017 279.678 330.169 288.975C330.169 289.072 330.169 289.155 330.169 289.252C330.364 298.34 323.149 305.874 314.061 306.069H313.63Z" fill="#2A9BFF"/>
</g>
<defs>
<clipPath id="clip0_2085_104">
<rect width="333" height="333" fill="white"/>
</clipPath>
</defs>
</svg>
