<svg width="242" height="39" viewBox="0 0 242 39" fill="none" xmlns="http://www.w3.org/2000/svg">
<path d="M22.5568 15.875H17.5795C17.4886 15.2311 17.303 14.6591 17.0227 14.1591C16.7424 13.6515 16.3826 13.2197 15.9432 12.8636C15.5038 12.5076 14.9962 12.2348 14.4205 12.0455C13.8523 11.8561 13.2348 11.7614 12.5682 11.7614C11.3636 11.7614 10.3144 12.0606 9.42045 12.6591C8.52652 13.25 7.83333 14.1136 7.34091 15.25C6.84849 16.3788 6.60227 17.75 6.60227 19.3636C6.60227 21.0227 6.84849 22.4167 7.34091 23.5455C7.84091 24.6742 8.53788 25.5265 9.43182 26.1023C10.3258 26.678 11.3598 26.9659 12.5341 26.9659C13.1932 26.9659 13.803 26.8788 14.3636 26.7045C14.9318 26.5303 15.4356 26.2765 15.875 25.9432C16.3144 25.6023 16.678 25.1894 16.9659 24.7045C17.2614 24.2197 17.4659 23.6667 17.5795 23.0455L22.5568 23.0682C22.428 24.1364 22.1061 25.1667 21.5909 26.1591C21.0833 27.1439 20.3977 28.0265 19.5341 28.8068C18.678 29.5795 17.6553 30.1932 16.4659 30.6477C15.2841 31.0947 13.947 31.3182 12.4545 31.3182C10.3788 31.3182 8.52273 30.8485 6.88636 29.9091C5.25758 28.9697 3.9697 27.6098 3.02273 25.8295C2.08333 24.0492 1.61364 21.8939 1.61364 19.3636C1.61364 16.8258 2.09091 14.6667 3.04545 12.8864C4 11.1061 5.29545 9.75 6.93182 8.81818C8.56818 7.87879 10.4091 7.40909 12.4545 7.40909C13.803 7.40909 15.053 7.59848 16.2045 7.97727C17.3636 8.35606 18.3902 8.90909 19.2841 9.63636C20.178 10.3561 20.9053 11.2386 21.4659 12.2841C22.0341 13.3295 22.3977 14.5265 22.5568 15.875ZM30.9716 31.3295C29.858 31.3295 28.8655 31.1364 27.9943 30.75C27.1231 30.3561 26.4337 29.7765 25.9261 29.0114C25.4261 28.2386 25.1761 27.2765 25.1761 26.125C25.1761 25.1553 25.3542 24.3409 25.7102 23.6818C26.0663 23.0227 26.5511 22.4924 27.1648 22.0909C27.7784 21.6894 28.4754 21.3864 29.2557 21.1818C30.0436 20.9773 30.8693 20.8333 31.733 20.75C32.7481 20.6439 33.5663 20.5455 34.1875 20.4545C34.8087 20.3561 35.2595 20.2121 35.5398 20.0227C35.8201 19.8333 35.9602 19.553 35.9602 19.1818V19.1136C35.9602 18.3939 35.733 17.8371 35.2784 17.4432C34.8314 17.0492 34.1951 16.8523 33.3693 16.8523C32.4981 16.8523 31.8049 17.0455 31.2898 17.4318C30.7746 17.8106 30.4337 18.2879 30.267 18.8636L25.7898 18.5C26.017 17.4394 26.464 16.5227 27.1307 15.75C27.7973 14.9697 28.6572 14.3712 29.7102 13.9545C30.7708 13.5303 31.9981 13.3182 33.392 13.3182C34.3617 13.3182 35.2898 13.4318 36.1761 13.6591C37.0701 13.8864 37.8617 14.2386 38.5511 14.7159C39.2481 15.1932 39.7973 15.8068 40.1989 16.5568C40.6004 17.2992 40.8011 18.1894 40.8011 19.2273V31H36.2102V28.5795H36.0739C35.7936 29.125 35.4186 29.6061 34.9489 30.0227C34.4792 30.4318 33.9148 30.7538 33.2557 30.9886C32.5966 31.2159 31.8352 31.3295 30.9716 31.3295ZM32.358 27.9886C33.0701 27.9886 33.6989 27.8485 34.2443 27.5682C34.7898 27.2803 35.2178 26.8939 35.5284 26.4091C35.839 25.9242 35.9943 25.375 35.9943 24.7614V22.9091C35.8428 23.0076 35.6345 23.0985 35.3693 23.1818C35.1117 23.2576 34.8201 23.3295 34.4943 23.3977C34.1686 23.4583 33.8428 23.5152 33.517 23.5682C33.1913 23.6136 32.8958 23.6553 32.6307 23.6932C32.0625 23.7765 31.5663 23.9091 31.142 24.0909C30.7178 24.2727 30.3883 24.5189 30.1534 24.8295C29.9186 25.1326 29.8011 25.5114 29.8011 25.9659C29.8011 26.625 30.0398 27.1288 30.517 27.4773C31.0019 27.8182 31.6155 27.9886 32.358 27.9886ZM44.5568 31V13.5455H49.1705V16.625H49.375C49.7386 15.6023 50.3447 14.7955 51.1932 14.2045C52.0417 13.6136 53.0568 13.3182 54.2386 13.3182C55.4356 13.3182 56.4545 13.6174 57.2955 14.2159C58.1364 14.8068 58.697 15.6098 58.9773 16.625H59.1591C59.5152 15.625 60.1591 14.8258 61.0909 14.2273C62.0303 13.6212 63.1402 13.3182 64.4205 13.3182C66.0492 13.3182 67.3712 13.8371 68.3864 14.875C69.4091 15.9053 69.9205 17.3674 69.9205 19.2614V31H65.0909V20.2159C65.0909 19.2462 64.8333 18.5189 64.3182 18.0341C63.803 17.5492 63.1591 17.3068 62.3864 17.3068C61.5076 17.3068 60.822 17.5871 60.3295 18.1477C59.8371 18.7008 59.5909 19.4318 59.5909 20.3409V31H54.8977V20.1136C54.8977 19.2576 54.6515 18.5758 54.1591 18.0682C53.6742 17.5606 53.0341 17.3068 52.2386 17.3068C51.7008 17.3068 51.2159 17.4432 50.7841 17.7159C50.3598 17.9811 50.0227 18.3561 49.7727 18.8409C49.5227 19.3182 49.3977 19.8788 49.3977 20.5227V31H44.5568ZM73.7443 37.5455V13.5455H78.517V16.4773H78.733C78.9451 16.0076 79.2519 15.5303 79.6534 15.0455C80.0625 14.553 80.5928 14.1439 81.2443 13.8182C81.9034 13.4848 82.7216 13.3182 83.6989 13.3182C84.9716 13.3182 86.1458 13.6515 87.2216 14.3182C88.2973 14.9773 89.1572 15.9735 89.8011 17.3068C90.4451 18.6326 90.767 20.2955 90.767 22.2955C90.767 24.2424 90.4527 25.8864 89.8239 27.2273C89.2027 28.5606 88.3542 29.572 87.2784 30.2614C86.2102 30.9432 85.0133 31.2841 83.6875 31.2841C82.7481 31.2841 81.9489 31.1288 81.2898 30.8182C80.6383 30.5076 80.1042 30.1174 79.6875 29.6477C79.2708 29.1705 78.9527 28.6894 78.733 28.2045H78.5852V37.5455H73.7443ZM78.483 22.2727C78.483 23.3106 78.6269 24.2159 78.9148 24.9886C79.2027 25.7614 79.6193 26.3636 80.1648 26.7955C80.7102 27.2197 81.3731 27.4318 82.1534 27.4318C82.9413 27.4318 83.608 27.2159 84.1534 26.7841C84.6989 26.3447 85.1117 25.7386 85.392 24.9659C85.6799 24.1856 85.8239 23.2879 85.8239 22.2727C85.8239 21.2652 85.6837 20.3788 85.4034 19.6136C85.1231 18.8485 84.7102 18.25 84.1648 17.8182C83.6193 17.3864 82.9489 17.1705 82.1534 17.1705C81.3655 17.1705 80.6989 17.3788 80.1534 17.7955C79.6155 18.2121 79.2027 18.803 78.9148 19.5682C78.6269 20.3333 78.483 21.2348 78.483 22.2727ZM105.188 23.5682V13.5455H110.028V31H105.381V27.8295H105.199C104.805 28.8523 104.15 29.6742 103.233 30.2955C102.324 30.9167 101.214 31.2273 99.9034 31.2273C98.7367 31.2273 97.7102 30.9621 96.8239 30.4318C95.9375 29.9015 95.2443 29.1477 94.7443 28.1705C94.2519 27.1932 94.0019 26.0227 93.9943 24.6591V13.5455H98.8352V23.7955C98.8428 24.8258 99.1193 25.6402 99.6648 26.2386C100.21 26.8371 100.941 27.1364 101.858 27.1364C102.441 27.1364 102.987 27.0038 103.494 26.7386C104.002 26.4659 104.411 26.0644 104.722 25.5341C105.04 25.0038 105.195 24.3485 105.188 23.5682ZM128.423 18.5227L123.991 18.7955C123.916 18.4167 123.753 18.0758 123.503 17.7727C123.253 17.4621 122.923 17.2159 122.514 17.0341C122.113 16.8447 121.632 16.75 121.071 16.75C120.321 16.75 119.688 16.9091 119.173 17.2273C118.658 17.5379 118.401 17.9545 118.401 18.4773C118.401 18.8939 118.567 19.2462 118.901 19.5341C119.234 19.822 119.806 20.053 120.616 20.2273L123.776 20.8636C125.473 21.2121 126.738 21.7727 127.571 22.5455C128.404 23.3182 128.821 24.3333 128.821 25.5909C128.821 26.7348 128.484 27.7386 127.81 28.6023C127.143 29.4659 126.226 30.1402 125.06 30.625C123.901 31.1023 122.563 31.3409 121.048 31.3409C118.738 31.3409 116.897 30.8598 115.526 29.8977C114.162 28.928 113.363 27.6098 113.128 25.9432L117.889 25.6932C118.033 26.3977 118.382 26.9356 118.935 27.3068C119.488 27.6705 120.196 27.8523 121.06 27.8523C121.908 27.8523 122.59 27.6894 123.105 27.3636C123.628 27.0303 123.893 26.6023 123.901 26.0795C123.893 25.6402 123.707 25.2803 123.344 25C122.98 24.7121 122.42 24.4924 121.662 24.3409L118.639 23.7386C116.935 23.3977 115.666 22.8068 114.832 21.9659C114.007 21.125 113.594 20.053 113.594 18.75C113.594 17.6288 113.897 16.6629 114.503 15.8523C115.116 15.0417 115.976 14.4167 117.082 13.9773C118.196 13.5379 119.499 13.3182 120.991 13.3182C123.196 13.3182 124.931 13.7841 126.196 14.7159C127.469 15.6477 128.211 16.9167 128.423 18.5227ZM144.585 14.4205C144.494 13.5038 144.104 12.7917 143.415 12.2841C142.725 11.7765 141.79 11.5227 140.608 11.5227C139.805 11.5227 139.127 11.6364 138.574 11.8636C138.021 12.0833 137.597 12.3902 137.301 12.7841C137.013 13.178 136.869 13.625 136.869 14.125C136.854 14.5417 136.941 14.9053 137.131 15.2159C137.328 15.5265 137.597 15.7955 137.938 16.0227C138.278 16.2424 138.672 16.4356 139.119 16.6023C139.566 16.7614 140.044 16.8977 140.551 17.0114L142.642 17.5114C143.657 17.7386 144.589 18.0417 145.438 18.4205C146.286 18.7992 147.021 19.2652 147.642 19.8182C148.263 20.3712 148.744 21.0227 149.085 21.7727C149.434 22.5227 149.612 23.3826 149.619 24.3523C149.612 25.7765 149.248 27.0114 148.528 28.0568C147.816 29.0947 146.786 29.9015 145.438 30.4773C144.097 31.0455 142.479 31.3295 140.585 31.3295C138.706 31.3295 137.07 31.0417 135.676 30.4659C134.29 29.8902 133.206 29.0379 132.426 27.9091C131.653 26.7727 131.248 25.3674 131.21 23.6932H135.972C136.025 24.4735 136.248 25.125 136.642 25.6477C137.044 26.1629 137.578 26.553 138.244 26.8182C138.919 27.0758 139.68 27.2045 140.528 27.2045C141.362 27.2045 142.085 27.0833 142.699 26.8409C143.32 26.5985 143.801 26.2614 144.142 25.8295C144.483 25.3977 144.653 24.9015 144.653 24.3409C144.653 23.8182 144.498 23.3788 144.188 23.0227C143.884 22.6667 143.438 22.3636 142.847 22.1136C142.263 21.8636 141.547 21.6364 140.699 21.4318L138.165 20.7955C136.203 20.3182 134.653 19.572 133.517 18.5568C132.381 17.5417 131.816 16.1742 131.824 14.4545C131.816 13.0455 132.191 11.8144 132.949 10.7614C133.714 9.70833 134.763 8.88636 136.097 8.29545C137.43 7.70454 138.945 7.40909 140.642 7.40909C142.369 7.40909 143.877 7.70454 145.165 8.29545C146.46 8.88636 147.468 9.70833 148.188 10.7614C148.907 11.8144 149.278 13.0341 149.301 14.4205H144.585ZM152.838 37.5455V13.5455H157.611V16.4773H157.827C158.039 16.0076 158.346 15.5303 158.747 15.0455C159.156 14.553 159.687 14.1439 160.338 13.8182C160.997 13.4848 161.815 13.3182 162.793 13.3182C164.065 13.3182 165.24 13.6515 166.315 14.3182C167.391 14.9773 168.251 15.9735 168.895 17.3068C169.539 18.6326 169.861 20.2955 169.861 22.2955C169.861 24.2424 169.546 25.8864 168.918 27.2273C168.296 28.5606 167.448 29.572 166.372 30.2614C165.304 30.9432 164.107 31.2841 162.781 31.2841C161.842 31.2841 161.043 31.1288 160.384 30.8182C159.732 30.5076 159.198 30.1174 158.781 29.6477C158.365 29.1705 158.046 28.6894 157.827 28.2045H157.679V37.5455H152.838ZM157.577 22.2727C157.577 23.3106 157.721 24.2159 158.009 24.9886C158.296 25.7614 158.713 26.3636 159.259 26.7955C159.804 27.2197 160.467 27.4318 161.247 27.4318C162.035 27.4318 162.702 27.2159 163.247 26.7841C163.793 26.3447 164.205 25.7386 164.486 24.9659C164.774 24.1856 164.918 23.2879 164.918 22.2727C164.918 21.2652 164.777 20.3788 164.497 19.6136C164.217 18.8485 163.804 18.25 163.259 17.8182C162.713 17.3864 162.043 17.1705 161.247 17.1705C160.459 17.1705 159.793 17.3788 159.247 17.7955C158.709 18.2121 158.296 18.803 158.009 19.5682C157.721 20.3333 157.577 21.2348 157.577 22.2727ZM177.929 20.9091V31H173.088V7.72727H177.793V16.625H177.997C178.391 15.5947 179.027 14.7879 179.906 14.2045C180.785 13.6136 181.887 13.3182 183.213 13.3182C184.425 13.3182 185.482 13.5833 186.384 14.1136C187.293 14.6364 187.997 15.3902 188.497 16.375C189.005 17.3523 189.255 18.5227 189.247 19.8864V31H184.406V20.75C184.414 19.6742 184.141 18.8371 183.588 18.2386C183.043 17.6402 182.277 17.3409 181.293 17.3409C180.634 17.3409 180.05 17.4811 179.543 17.7614C179.043 18.0417 178.649 18.4508 178.361 18.9886C178.08 19.5189 177.937 20.1591 177.929 20.9091ZM201.011 31.3409C199.216 31.3409 197.67 30.9773 196.375 30.25C195.087 29.5152 194.095 28.4773 193.398 27.1364C192.701 25.7879 192.352 24.1932 192.352 22.3523C192.352 20.5568 192.701 18.9811 193.398 17.625C194.095 16.2689 195.076 15.2121 196.341 14.4545C197.614 13.697 199.106 13.3182 200.818 13.3182C201.97 13.3182 203.042 13.5038 204.034 13.875C205.034 14.2386 205.905 14.7879 206.648 15.5227C207.398 16.2576 207.981 17.1818 208.398 18.2955C208.814 19.4015 209.023 20.697 209.023 22.1818V23.5114H194.284V20.5114H204.466C204.466 19.8144 204.314 19.197 204.011 18.6591C203.708 18.1212 203.288 17.7008 202.75 17.3977C202.22 17.0871 201.602 16.9318 200.898 16.9318C200.163 16.9318 199.511 17.1023 198.943 17.4432C198.383 17.7765 197.943 18.2273 197.625 18.7955C197.307 19.3561 197.144 19.9811 197.136 20.6705V23.5227C197.136 24.3864 197.295 25.1326 197.614 25.7614C197.939 26.3902 198.398 26.875 198.989 27.2159C199.58 27.5568 200.28 27.7273 201.091 27.7273C201.629 27.7273 202.121 27.6515 202.568 27.5C203.015 27.3485 203.398 27.1212 203.716 26.8182C204.034 26.5152 204.277 26.1439 204.443 25.7045L208.92 26C208.693 27.0758 208.227 28.0152 207.523 28.8182C206.826 29.6136 205.924 30.2348 204.818 30.6818C203.72 31.1212 202.451 31.3409 201.011 31.3409ZM212.182 31V13.5455H216.875V16.5909H217.057C217.375 15.5076 217.909 14.6894 218.659 14.1364C219.409 13.5758 220.273 13.2955 221.25 13.2955C221.492 13.2955 221.754 13.3106 222.034 13.3409C222.314 13.3712 222.561 13.4129 222.773 13.4659V17.7614C222.545 17.6932 222.231 17.6326 221.83 17.5795C221.428 17.5265 221.061 17.5 220.727 17.5C220.015 17.5 219.379 17.6553 218.818 17.9659C218.265 18.2689 217.826 18.6932 217.5 19.2386C217.182 19.7841 217.023 20.4129 217.023 21.125V31H212.182ZM232.418 31.3409C230.622 31.3409 229.077 30.9773 227.781 30.25C226.493 29.5152 225.501 28.4773 224.804 27.1364C224.107 25.7879 223.759 24.1932 223.759 22.3523C223.759 20.5568 224.107 18.9811 224.804 17.625C225.501 16.2689 226.482 15.2121 227.747 14.4545C229.02 13.697 230.512 13.3182 232.224 13.3182C233.376 13.3182 234.448 13.5038 235.44 13.875C236.44 14.2386 237.312 14.7879 238.054 15.5227C238.804 16.2576 239.387 17.1818 239.804 18.2955C240.221 19.4015 240.429 20.697 240.429 22.1818V23.5114H225.69V20.5114H235.872C235.872 19.8144 235.721 19.197 235.418 18.6591C235.115 18.1212 234.694 17.7008 234.156 17.3977C233.626 17.0871 233.009 16.9318 232.304 16.9318C231.569 16.9318 230.918 17.1023 230.349 17.4432C229.789 17.7765 229.349 18.2273 229.031 18.7955C228.713 19.3561 228.55 19.9811 228.543 20.6705V23.5227C228.543 24.3864 228.702 25.1326 229.02 25.7614C229.346 26.3902 229.804 26.875 230.395 27.2159C230.986 27.5568 231.687 27.7273 232.497 27.7273C233.035 27.7273 233.527 27.6515 233.974 27.5C234.421 27.3485 234.804 27.1212 235.122 26.8182C235.44 26.5152 235.683 26.1439 235.849 25.7045L240.327 26C240.099 27.0758 239.634 28.0152 238.929 28.8182C238.232 29.6136 237.33 30.2348 236.224 30.6818C235.126 31.1212 233.857 31.3409 232.418 31.3409Z" fill="url(#paint0_linear_2033_296)"/>
<defs>
<linearGradient id="paint0_linear_2033_296" x1="0" y1="19.5" x2="242" y2="19.5" gradientUnits="userSpaceOnUse">
<stop offset="0.110577" stop-color="#9976FF"/>
<stop offset="0.480769" stop-color="#77AEFF"/>
<stop offset="1" stop-color="#289BFF"/>
</linearGradient>
</defs>
</svg>
